<?xml version="1.0" encoding="UTF-8"?>
<svg xmlns="http://www.w3.org/2000/svg" viewBox="0 0 24 24" fill="none">
  <!-- Stacked files outline (matches FontAwesome "files" concept) -->
  <path
    d="M8 7V6a3 3 0 0 1 3-3h6a3 3 0 0 1 3 3v10a3 3 0 0 1-3 3h-1"
    stroke="currentColor"
    stroke-width="1.8"
    stroke-linecap="round"
    stroke-linejoin="round"
  />
  <path
    d="M14 21H7a3 3 0 0 1-3-3V10a3 3 0 0 1 3-3h7a3 3 0 0 1 3 3v8a3 3 0 0 1-3 3Z"
    stroke="currentColor"
    stroke-width="1.8"
    stroke-linecap="round"
    stroke-linejoin="round"
  />
</svg>

